<?xml version="1.0" encoding="UTF-8" standalone="no"?><svg xmlns="http://www.w3.org/2000/svg" xmlns:xlink="http://www.w3.org/1999/xlink" contentScriptType="application/ecmascript" contentStyleType="text/css" height="511px" preserveAspectRatio="none" style="width:696px;height:511px;" version="1.1" viewBox="0 0 696 511" width="696px" zoomAndPan="magnify"><defs><filter height="300%" id="f7v5ka4" width="300%" x="-1" y="-1"><feGaussianBlur result="blurOut" stdDeviation="2.0"/><feColorMatrix in="blurOut" result="blurOut2" type="matrix" values="0 0 0 0 0 0 0 0 0 0 0 0 0 0 0 0 0 0 .4 0"/><feOffset dx="4.0" dy="4.0" in="blurOut2" result="blurOut3"/><feBlend in="SourceGraphic" in2="blurOut3" mode="normal"/></filter></defs><g><text fill="#000000" font-family="sans-serif" font-size="18" lengthAdjust="spacingAndGlyphs" textLength="151" x="277.5" y="17.4023">iOS app structure</text><!--class UserIdentifier--><rect fill="#FEFECE" filter="url(#f7v5ka4)" height="73.9102" style="stroke: #A80036; stroke-width: 1.5;" width="136" x="163.5" y="29.1992"/><ellipse cx="190.65" cy="45.1992" fill="#ADD1B2" rx="11" ry="11" style="stroke: #A80036; stroke-width: 1.0;"/><path d="M193.1231,51.3423 Q192.5421,51.6411 191.9029,51.7905 Q191.2638,51.9399 190.5582,51.9399 Q188.0514,51.9399 186.7315,50.2881 Q185.4117,48.6362 185.4117,45.5151 Q185.4117,42.3857 186.7315,40.7339 Q188.0514,39.082 190.5582,39.082 Q191.2638,39.082 191.9112,39.2314 Q192.5587,39.3809 193.1231,39.6797 L193.1231,42.4023 Q192.4923,41.8213 191.8988,41.5515 Q191.3053,41.2817 190.6744,41.2817 Q189.3297,41.2817 188.6449,42.3484 Q187.9601,43.415 187.9601,45.5151 Q187.9601,47.6069 188.6449,48.6736 Q189.3297,49.7402 190.6744,49.7402 Q191.3053,49.7402 191.8988,49.4705 Q192.4923,49.2007 193.1231,48.6196 Z "/><text fill="#000000" font-family="sans-serif" font-size="12" lengthAdjust="spacingAndGlyphs" textLength="77" x="207.35" y="49.7344">UserIdentifier</text><line style="stroke: #A80036; stroke-width: 1.5;" x1="164.5" x2="298.5" y1="61.1992" y2="61.1992"/><text fill="#000000" font-family="sans-serif" font-size="11" lengthAdjust="spacingAndGlyphs" textLength="124" x="169.5" y="75.834">Identifies user, if exists</text><text fill="#000000" font-family="sans-serif" font-size="11" lengthAdjust="spacingAndGlyphs" textLength="124" x="169.5" y="88.7891">Creates user, if doesn't</text><line style="stroke: #A80036; stroke-width: 1.5;" x1="164.5" x2="298.5" y1="95.1094" y2="95.1094"/><!--class ContentView--><rect fill="#FEFECE" filter="url(#f7v5ka4)" height="73.9102" style="stroke: #A80036; stroke-width: 1.5;" width="193" x="335" y="29.1992"/><ellipse cx="391.75" cy="45.1992" fill="#ADD1B2" rx="11" ry="11" style="stroke: #A80036; stroke-width: 1.0;"/><path d="M394.2231,51.3423 Q393.6421,51.6411 393.0029,51.7905 Q392.3638,51.9399 391.6582,51.9399 Q389.1514,51.9399 387.8315,50.2881 Q386.5117,48.6362 386.5117,45.5151 Q386.5117,42.3857 387.8315,40.7339 Q389.1514,39.082 391.6582,39.082 Q392.3638,39.082 393.0112,39.2314 Q393.6587,39.3809 394.2231,39.6797 L394.2231,42.4023 Q393.5923,41.8213 392.9988,41.5515 Q392.4053,41.2817 391.7744,41.2817 Q390.4297,41.2817 389.7449,42.3484 Q389.0601,43.415 389.0601,45.5151 Q389.0601,47.6069 389.7449,48.6736 Q390.4297,49.7402 391.7744,49.7402 Q392.4053,49.7402 392.9988,49.4705 Q393.5923,49.2007 394.2231,48.6196 Z "/><text fill="#000000" font-family="sans-serif" font-size="12" lengthAdjust="spacingAndGlyphs" textLength="71" x="412.25" y="49.7344">ContentView</text><line style="stroke: #A80036; stroke-width: 1.5;" x1="336" x2="527" y1="61.1992" y2="61.1992"/><text fill="#000000" font-family="sans-serif" font-size="11" lengthAdjust="spacingAndGlyphs" textLength="167" x="341" y="75.834">Determines next View based on</text><text fill="#000000" font-family="sans-serif" font-size="11" lengthAdjust="spacingAndGlyphs" textLength="181" x="341" y="88.7891">whether logged in for the 1st time</text><line style="stroke: #A80036; stroke-width: 1.5;" x1="336" x2="527" y1="95.1094" y2="95.1094"/><polygon fill="#FBFB77" filter="url(#f7v5ka4)" points="563.5,38.1992,563.5,94.1309,687.5,94.1309,687.5,48.1992,677.5,38.1992,563.5,38.1992" style="stroke: #A80036; stroke-width: 1.0;"/><polygon fill="#FBFB77" points="563.5,38.1992,563.5,62.1992,528.12,66.1992,563.5,70.1992,563.5,94.1309,687.5,94.1309,687.5,48.1992,677.5,38.1992,563.5,38.1992" style="stroke: #A80036; stroke-width: 1.0;"/><line style="stroke: #A80036; stroke-width: 1.0;" x1="677.5" x2="677.5" y1="38.1992" y2="48.1992"/><line style="stroke: #A80036; stroke-width: 1.0;" x1="687.5" x2="677.5" y1="48.1992" y2="48.1992"/><text fill="#000000" font-family="sans-serif" font-size="13" lengthAdjust="spacingAndGlyphs" textLength="42" x="569.5" y="55.7676">TODO:</text><text fill="#000000" font-family="sans-serif" font-size="13" lengthAdjust="spacingAndGlyphs" textLength="103" x="569.5" y="71.0781">if user logged in</text><text fill="#000000" font-family="sans-serif" font-size="13" lengthAdjust="spacingAndGlyphs" textLength="98" x="569.5" y="86.3887">for the 1st time</text><!--class UserHomesObserver--><rect fill="#FEFECE" filter="url(#f7v5ka4)" height="60.9551" style="stroke: #A80036; stroke-width: 1.5;" width="152" x="170.5" y="168.1992"/><ellipse cx="185.95" cy="184.1992" fill="#ADD1B2" rx="11" ry="11" style="stroke: #A80036; stroke-width: 1.0;"/><path d="M188.4231,190.3423 Q187.8421,190.6411 187.2029,190.7905 Q186.5638,190.9399 185.8582,190.9399 Q183.3514,190.9399 182.0315,189.2881 Q180.7117,187.6362 180.7117,184.5151 Q180.7117,181.3857 182.0315,179.7339 Q183.3514,178.082 185.8582,178.082 Q186.5638,178.082 187.2112,178.2314 Q187.8587,178.3809 188.4231,178.6797 L188.4231,181.4023 Q187.7923,180.8213 187.1988,180.5515 Q186.6053,180.2817 185.9744,180.2817 Q184.6297,180.2817 183.9449,181.3484 Q183.2601,182.415 183.2601,184.5151 Q183.2601,186.6069 183.9449,187.6736 Q184.6297,188.7402 185.9744,188.7402 Q186.6053,188.7402 187.1988,188.4705 Q187.7923,188.2007 188.4231,187.6196 Z "/><text fill="#000000" font-family="sans-serif" font-size="12" lengthAdjust="spacingAndGlyphs" textLength="119" x="200.05" y="188.7344">UserHomesObserver</text><line style="stroke: #A80036; stroke-width: 1.5;" x1="171.5" x2="321.5" y1="200.1992" y2="200.1992"/><text fill="#000000" font-family="sans-serif" font-size="11" lengthAdjust="spacingAndGlyphs" textLength="140" x="176.5" y="214.834">Listens to homes user has</text><line style="stroke: #A80036; stroke-width: 1.5;" x1="171.5" x2="321.5" y1="221.1543" y2="221.1543"/><polygon fill="#FBFB77" filter="url(#f7v5ka4)" points="6,178.1992,6,218.8203,135,218.8203,135,188.1992,125,178.1992,6,178.1992" style="stroke: #A80036; stroke-width: 1.0;"/><polygon fill="#FBFB77" points="6,178.1992,6,218.8203,135,218.8203,135,202.6992,170.36,198.6992,135,194.6992,135,188.1992,125,178.1992,6,178.1992" style="stroke: #A80036; stroke-width: 1.0;"/><line style="stroke: #A80036; stroke-width: 1.0;" x1="125" x2="125" y1="178.1992" y2="188.1992"/><line style="stroke: #A80036; stroke-width: 1.0;" x1="135" x2="125" y1="188.1992" y2="188.1992"/><text fill="#000000" font-family="sans-serif" font-size="13" lengthAdjust="spacingAndGlyphs" textLength="42" x="12" y="195.7676">TODO:</text><text fill="#000000" font-family="sans-serif" font-size="13" lengthAdjust="spacingAndGlyphs" textLength="108" x="12" y="211.0781">listen to changes</text><!--class HomeSelectionView--><rect fill="#FEFECE" filter="url(#f7v5ka4)" height="60.9551" style="stroke: #A80036; stroke-width: 1.5;" width="148" x="357.5" y="168.1992"/><ellipse cx="374.75" cy="184.1992" fill="#ADD1B2" rx="11" ry="11" style="stroke: #A80036; stroke-width: 1.0;"/><path d="M377.2231,190.3423 Q376.6421,190.6411 376.0029,190.7905 Q375.3638,190.9399 374.6582,190.9399 Q372.1514,190.9399 370.8315,189.2881 Q369.5117,187.6362 369.5117,184.5151 Q369.5117,181.3857 370.8315,179.7339 Q372.1514,178.082 374.6582,178.082 Q375.3638,178.082 376.0112,178.2314 Q376.6587,178.3809 377.2231,178.6797 L377.2231,181.4023 Q376.5923,180.8213 375.9988,180.5515 Q375.4053,180.2817 374.7744,180.2817 Q373.4297,180.2817 372.7449,181.3484 Q372.0601,182.415 372.0601,184.5151 Q372.0601,186.6069 372.7449,187.6736 Q373.4297,188.7402 374.7744,188.7402 Q375.4053,188.7402 375.9988,188.4705 Q376.5923,188.2007 377.2231,187.6196 Z "/><text fill="#000000" font-family="sans-serif" font-size="12" lengthAdjust="spacingAndGlyphs" textLength="111" x="389.25" y="188.7344">HomeSelectionView</text><line style="stroke: #A80036; stroke-width: 1.5;" x1="358.5" x2="504.5" y1="200.1992" y2="200.1992"/><text fill="#000000" font-family="sans-serif" font-size="11" lengthAdjust="spacingAndGlyphs" textLength="136" x="363.5" y="214.834">Selects 1 of user's homes</text><line style="stroke: #A80036; stroke-width: 1.5;" x1="358.5" x2="504.5" y1="221.1543" y2="221.1543"/><polygon fill="#FBFB77" filter="url(#f7v5ka4)" points="540.5,163.1992,540.5,234.4414,682.5,234.4414,682.5,173.1992,672.5,163.1992,540.5,163.1992" style="stroke: #A80036; stroke-width: 1.0;"/><polygon fill="#FBFB77" points="540.5,163.1992,540.5,194.6992,505.68,198.6992,540.5,202.6992,540.5,234.4414,682.5,234.4414,682.5,173.1992,672.5,163.1992,540.5,163.1992" style="stroke: #A80036; stroke-width: 1.0;"/><line style="stroke: #A80036; stroke-width: 1.0;" x1="672.5" x2="672.5" y1="163.1992" y2="173.1992"/><line style="stroke: #A80036; stroke-width: 1.0;" x1="682.5" x2="672.5" y1="173.1992" y2="173.1992"/><text fill="#000000" font-family="sans-serif" font-size="13" lengthAdjust="spacingAndGlyphs" textLength="42" x="546.5" y="180.7676">TODO:</text><text fill="#000000" font-family="sans-serif" font-size="13" lengthAdjust="spacingAndGlyphs" textLength="121" x="546.5" y="196.0781">make it possible to</text><text fill="#000000" font-family="sans-serif" font-size="13" lengthAdjust="spacingAndGlyphs" textLength="93" x="546.5" y="211.3887">select multiple</text><text fill="#000000" font-family="sans-serif" font-size="13" lengthAdjust="spacingAndGlyphs" textLength="78" x="546.5" y="226.6992">rooms/LEDs</text><!--class HomeObserver--><rect fill="#FEFECE" filter="url(#f7v5ka4)" height="73.9102" style="stroke: #A80036; stroke-width: 1.5;" width="151" x="171" y="294.1992"/><ellipse cx="200.4" cy="310.1992" fill="#ADD1B2" rx="11" ry="11" style="stroke: #A80036; stroke-width: 1.0;"/><path d="M202.8731,316.3423 Q202.2921,316.6411 201.6529,316.7905 Q201.0138,316.9399 200.3082,316.9399 Q197.8014,316.9399 196.4815,315.2881 Q195.1617,313.6362 195.1617,310.5151 Q195.1617,307.3857 196.4815,305.7339 Q197.8014,304.082 200.3082,304.082 Q201.0138,304.082 201.6612,304.2314 Q202.3087,304.3809 202.8731,304.6797 L202.8731,307.4023 Q202.2423,306.8213 201.6488,306.5515 Q201.0553,306.2817 200.4244,306.2817 Q199.0797,306.2817 198.3949,307.3484 Q197.7101,308.415 197.7101,310.5151 Q197.7101,312.6069 198.3949,313.6736 Q199.0797,314.7402 200.4244,314.7402 Q201.0553,314.7402 201.6488,314.4705 Q202.2423,314.2007 202.8731,313.6196 Z "/><text fill="#000000" font-family="sans-serif" font-size="12" lengthAdjust="spacingAndGlyphs" textLength="87" x="217.6" y="314.7344">HomeObserver</text><line style="stroke: #A80036; stroke-width: 1.5;" x1="172" x2="321" y1="326.1992" y2="326.1992"/><text fill="#000000" font-family="sans-serif" font-size="11" lengthAdjust="spacingAndGlyphs" textLength="139" x="177" y="340.834">Listen to rooms in a home</text><text fill="#000000" font-family="sans-serif" font-size="11" lengthAdjust="spacingAndGlyphs" textLength="122" x="177" y="353.7891">and LEDs in each room</text><line style="stroke: #A80036; stroke-width: 1.5;" x1="172" x2="321" y1="360.1094" y2="360.1094"/><polygon fill="#FBFB77" filter="url(#f7v5ka4)" points="7,310.6992,7,351.3203,136,351.3203,136,320.6992,126,310.6992,7,310.6992" style="stroke: #A80036; stroke-width: 1.0;"/><polygon fill="#FBFB77" points="7,310.6992,7,351.3203,136,351.3203,136,335.1992,170.6,331.1992,136,327.1992,136,320.6992,126,310.6992,7,310.6992" style="stroke: #A80036; stroke-width: 1.0;"/><line style="stroke: #A80036; stroke-width: 1.0;" x1="126" x2="126" y1="310.6992" y2="320.6992"/><line style="stroke: #A80036; stroke-width: 1.0;" x1="136" x2="126" y1="320.6992" y2="320.6992"/><text fill="#000000" font-family="sans-serif" font-size="13" lengthAdjust="spacingAndGlyphs" textLength="42" x="13" y="328.2676">TODO:</text><text fill="#000000" font-family="sans-serif" font-size="13" lengthAdjust="spacingAndGlyphs" textLength="108" x="13" y="343.5781">listen to changes</text><!--class RoomsManagerView--><rect fill="#FEFECE" filter="url(#f7v5ka4)" height="73.9102" style="stroke: #A80036; stroke-width: 1.5;" width="148" x="357.5" y="294.1992"/><ellipse cx="372.5" cy="310.1992" fill="#ADD1B2" rx="11" ry="11" style="stroke: #A80036; stroke-width: 1.0;"/><path d="M374.9731,316.3423 Q374.3921,316.6411 373.7529,316.7905 Q373.1138,316.9399 372.4082,316.9399 Q369.9014,316.9399 368.5815,315.2881 Q367.2617,313.6362 367.2617,310.5151 Q367.2617,307.3857 368.5815,305.7339 Q369.9014,304.082 372.4082,304.082 Q373.1138,304.082 373.7612,304.2314 Q374.4087,304.3809 374.9731,304.6797 L374.9731,307.4023 Q374.3423,306.8213 373.7488,306.5515 Q373.1553,306.2817 372.5244,306.2817 Q371.1797,306.2817 370.4949,307.3484 Q369.8101,308.415 369.8101,310.5151 Q369.8101,312.6069 370.4949,313.6736 Q371.1797,314.7402 372.5244,314.7402 Q373.1553,314.7402 373.7488,314.4705 Q374.3423,314.2007 374.9731,313.6196 Z "/><text fill="#000000" font-family="sans-serif" font-size="12" lengthAdjust="spacingAndGlyphs" textLength="116" x="386.5" y="314.7344">RoomsManagerView</text><line style="stroke: #A80036; stroke-width: 1.5;" x1="358.5" x2="504.5" y1="326.1992" y2="326.1992"/><text fill="#000000" font-family="sans-serif" font-size="11" lengthAdjust="spacingAndGlyphs" textLength="135" x="363.5" y="340.834">View where a user selects</text><text fill="#000000" font-family="sans-serif" font-size="11" lengthAdjust="spacingAndGlyphs" textLength="82" x="363.5" y="353.7891">LEDs to change</text><line style="stroke: #A80036; stroke-width: 1.5;" x1="358.5" x2="504.5" y1="360.1094" y2="360.1094"/><!--class ColorWheelView--><rect fill="#FEFECE" filter="url(#f7v5ka4)" height="73.9102" style="stroke: #A80036; stroke-width: 1.5;" width="162" x="350.5" y="428.1992"/><ellipse cx="383.05" cy="444.1992" fill="#ADD1B2" rx="11" ry="11" style="stroke: #A80036; stroke-width: 1.0;"/><path d="M385.5231,450.3423 Q384.9421,450.6411 384.3029,450.7905 Q383.6638,450.9399 382.9582,450.9399 Q380.4514,450.9399 379.1315,449.2881 Q377.8117,447.6362 377.8117,444.5151 Q377.8117,441.3857 379.1315,439.7339 Q380.4514,438.082 382.9582,438.082 Q383.6638,438.082 384.3112,438.2314 Q384.9587,438.3809 385.5231,438.6797 L385.5231,441.4023 Q384.8923,440.8213 384.2988,440.5515 Q383.7053,440.2817 383.0744,440.2817 Q381.7297,440.2817 381.0449,441.3484 Q380.3601,442.415 380.3601,444.5151 Q380.3601,446.6069 381.0449,447.6736 Q381.7297,448.7402 383.0744,448.7402 Q383.7053,448.7402 384.2988,448.4705 Q384.8923,448.2007 385.5231,447.6196 Z "/><text fill="#000000" font-family="sans-serif" font-size="12" lengthAdjust="spacingAndGlyphs" textLength="91" x="400.95" y="448.7344">ColorWheelView</text><line style="stroke: #A80036; stroke-width: 1.5;" x1="351.5" x2="511.5" y1="460.1992" y2="460.1992"/><text fill="#000000" font-family="sans-serif" font-size="11" lengthAdjust="spacingAndGlyphs" textLength="150" x="356.5" y="474.834">Updating selected LEDs with</text><text fill="#000000" font-family="sans-serif" font-size="11" lengthAdjust="spacingAndGlyphs" textLength="64" x="356.5" y="487.7891">Color Wheel</text><line style="stroke: #A80036; stroke-width: 1.5;" x1="351.5" x2="511.5" y1="494.1094" y2="494.1094"/><path d="M299.86,66.1992 C309.78,66.1992 319.71,66.1992 329.64,66.1992 " fill="none" style="stroke: #A80036; stroke-width: 1.0;"/><polygon fill="#A80036" points="334.83,66.1992,325.83,62.1992,329.83,66.1992,325.83,70.1992,334.83,66.1992" style="stroke: #A80036; stroke-width: 1.0;"/><path d="M431.5,103.2092 C431.5,121.8192 431.5,144.4492 431.5,162.8892 " fill="none" style="stroke: #A80036; stroke-width: 1.0;"/><polygon fill="#A80036" points="431.5,167.9792,435.5,158.9792,431.5,162.9792,427.5,158.9792,431.5,167.9792" style="stroke: #A80036; stroke-width: 1.0;"/><path d="M322.74,198.6992 C332.51,198.6992 342.28,198.6992 352.04,198.6992 " fill="none" style="stroke: #A80036; stroke-width: 1.0;"/><polygon fill="#A80036" points="357.15,198.6992,348.15,194.6992,352.15,198.6992,348.15,202.6992,357.15,198.6992" style="stroke: #A80036; stroke-width: 1.0;"/><path d="M431.5,229.3092 C431.5,246.9092 431.5,269.4892 431.5,288.8292 " fill="none" style="stroke: #A80036; stroke-width: 1.0;"/><polygon fill="#A80036" points="431.5,294.1892,435.5,285.1892,431.5,289.1892,427.5,285.1892,431.5,294.1892" style="stroke: #A80036; stroke-width: 1.0;"/><path d="M322.02,331.1992 C331.97,331.1992 341.93,331.1992 351.88,331.1992 " fill="none" style="stroke: #A80036; stroke-width: 1.0;"/><polygon fill="#A80036" points="357.09,331.1992,348.09,327.1992,352.09,331.1992,348.09,335.1992,357.09,331.1992" style="stroke: #A80036; stroke-width: 1.0;"/><path d="M431.5,368.2692 C431.5,385.1492 431.5,405.3392 431.5,422.8392 " fill="none" style="stroke: #A80036; stroke-width: 1.0;"/><polygon fill="#A80036" points="431.5,428.1692,435.5,419.1692,431.5,423.1692,427.5,419.1692,431.5,428.1692" style="stroke: #A80036; stroke-width: 1.0;"/></g></svg>