<?xml version="1.0" encoding="UTF-8" standalone="no"?><svg xmlns="http://www.w3.org/2000/svg" xmlns:xlink="http://www.w3.org/1999/xlink" contentScriptType="application/ecmascript" contentStyleType="text/css" height="550px" preserveAspectRatio="none" style="width:387px;height:550px;" version="1.1" viewBox="0 0 387 550" width="387px" zoomAndPan="magnify"><defs><filter height="300%" id="fqnrifr" width="300%" x="-1" y="-1"><feGaussianBlur result="blurOut" stdDeviation="2.0"/><feColorMatrix in="blurOut" result="blurOut2" type="matrix" values="0 0 0 0 0 0 0 0 0 0 0 0 0 0 0 0 0 0 .4 0"/><feOffset dx="4.0" dy="4.0" in="blurOut2" result="blurOut3"/><feBlend in="SourceGraphic" in2="blurOut3" mode="normal"/></filter></defs><g><text fill="#000000" font-family="sans-serif" font-size="18" lengthAdjust="spacingAndGlyphs" textLength="120" x="138" y="18.6855">Entity structure</text><!--class Home--><rect fill="#FEFECE" filter="url(#fqnrifr)" height="61.8359" style="stroke: #A80036; stroke-width: 1.5;" width="71" x="91.5" y="30.6406"/><ellipse cx="108.75" cy="46.6406" fill="#ADD1B2" rx="11" ry="11" style="stroke: #A80036; stroke-width: 1.0;"/><path d="M111.5156,42.5156 Q111.6719,42.2969 111.8594,42.1875 Q112.0469,42.0781 112.2656,42.0781 Q112.6406,42.0781 112.875,42.3359 Q113.1094,42.5938 113.1094,43.2031 L113.1094,44.6563 Q113.1094,45.2656 112.875,45.5313 Q112.6406,45.7969 112.2656,45.7969 Q111.9219,45.7969 111.7188,45.5938 Q111.5156,45.4063 111.4063,44.8906 Q111.3594,44.5313 111.1719,44.3438 Q110.8438,43.9688 110.2344,43.75 Q109.625,43.5313 109,43.5313 Q108.2344,43.5313 107.6016,43.8594 Q106.9688,44.1875 106.4766,44.9375 Q105.9844,45.6875 105.9844,46.7188 L105.9844,47.8125 Q105.9844,49.0469 106.875,49.8672 Q107.7656,50.6875 109.3594,50.6875 Q110.2969,50.6875 110.9531,50.4375 Q111.3438,50.2813 111.7656,49.8438 Q112.0313,49.5781 112.1797,49.5 Q112.3281,49.4219 112.5313,49.4219 Q112.8594,49.4219 113.1172,49.6797 Q113.375,49.9375 113.375,50.2813 Q113.375,50.625 113.0313,51.0313 Q112.5313,51.6094 111.7344,51.9375 Q110.6563,52.3906 109.3594,52.3906 Q107.8438,52.3906 106.6406,51.7656 Q105.6563,51.2656 104.9688,50.1953 Q104.2813,49.125 104.2813,47.8438 L104.2813,46.6875 Q104.2813,45.3594 104.8984,44.2109 Q105.5156,43.0625 106.6094,42.4453 Q107.7031,41.8281 108.9375,41.8281 Q109.6719,41.8281 110.3203,41.9922 Q110.9688,42.1563 111.5156,42.5156 Z "/><text fill="#000000" font-family="sans-serif" font-size="12" lengthAdjust="spacingAndGlyphs" textLength="34" x="123.25" y="51.5508">Home</text><line style="stroke: #A80036; stroke-width: 1.5;" x1="92.5" x2="161.5" y1="62.6406" y2="62.6406"/><text fill="#000000" font-family="sans-serif" font-size="11" lengthAdjust="spacingAndGlyphs" textLength="59" x="97.5" y="78.0596">name: string</text><line style="stroke: #A80036; stroke-width: 1.5;" x1="92.5" x2="161.5" y1="84.4766" y2="84.4766"/><polygon fill="#FBFB77" filter="url(#fqnrifr)" points="198,40.1406,198,82.8438,318,82.8438,318,50.1406,308,40.1406,198,40.1406" style="stroke: #A80036; stroke-width: 1.0;"/><polygon fill="#FBFB77" points="198,40.1406,198,57.6406,162.564,61.6406,198,65.6406,198,82.8438,318,82.8438,318,50.1406,308,40.1406,198,40.1406" style="stroke: #A80036; stroke-width: 1.0;"/><line style="stroke: #A80036; stroke-width: 1.0;" x1="308" x2="308" y1="40.1406" y2="50.1406"/><line style="stroke: #A80036; stroke-width: 1.0;" x1="318" x2="308" y1="50.1406" y2="50.1406"/><text fill="#000000" font-family="sans-serif" font-size="13" lengthAdjust="spacingAndGlyphs" textLength="99" x="204" y="58.6357">Users could have</text><text fill="#000000" font-family="sans-serif" font-size="13" lengthAdjust="spacingAndGlyphs" textLength="76" x="204" y="74.9873">a home. TBD</text><!--class Room--><rect fill="#FEFECE" filter="url(#fqnrifr)" height="75.6719" style="stroke: #A80036; stroke-width: 1.5;" width="118" x="68" y="152.6406"/><ellipse cx="106.4" cy="168.6406" fill="#ADD1B2" rx="11" ry="11" style="stroke: #A80036; stroke-width: 1.0;"/><path d="M109.1656,164.5156 Q109.3219,164.2969 109.5094,164.1875 Q109.6969,164.0781 109.9156,164.0781 Q110.2906,164.0781 110.525,164.3359 Q110.7594,164.5938 110.7594,165.2031 L110.7594,166.6563 Q110.7594,167.2656 110.525,167.5313 Q110.2906,167.7969 109.9156,167.7969 Q109.5719,167.7969 109.3688,167.5938 Q109.1656,167.4063 109.0563,166.8906 Q109.0094,166.5313 108.8219,166.3438 Q108.4938,165.9688 107.8844,165.75 Q107.275,165.5313 106.65,165.5313 Q105.8844,165.5313 105.2516,165.8594 Q104.6188,166.1875 104.1266,166.9375 Q103.6344,167.6875 103.6344,168.7188 L103.6344,169.8125 Q103.6344,171.0469 104.525,171.8672 Q105.4156,172.6875 107.0094,172.6875 Q107.9469,172.6875 108.6031,172.4375 Q108.9938,172.2813 109.4156,171.8438 Q109.6813,171.5781 109.8297,171.5 Q109.9781,171.4219 110.1813,171.4219 Q110.5094,171.4219 110.7672,171.6797 Q111.025,171.9375 111.025,172.2813 Q111.025,172.625 110.6813,173.0313 Q110.1813,173.6094 109.3844,173.9375 Q108.3063,174.3906 107.0094,174.3906 Q105.4938,174.3906 104.2906,173.7656 Q103.3063,173.2656 102.6188,172.1953 Q101.9313,171.125 101.9313,169.8438 L101.9313,168.6875 Q101.9313,167.3594 102.5484,166.2109 Q103.1656,165.0625 104.2594,164.4453 Q105.3531,163.8281 106.5875,163.8281 Q107.3219,163.8281 107.9703,163.9922 Q108.6188,164.1563 109.1656,164.5156 Z "/><text fill="#000000" font-family="sans-serif" font-size="12" lengthAdjust="spacingAndGlyphs" textLength="34" x="125.6" y="173.5508">Room</text><line style="stroke: #A80036; stroke-width: 1.5;" x1="69" x2="185" y1="184.6406" y2="184.6406"/><text fill="#000000" font-family="sans-serif" font-size="11" lengthAdjust="spacingAndGlyphs" textLength="59" x="74" y="200.0596">name: string</text><line style="stroke: #A80036; stroke-width: 1.5;" x1="69" x2="185" y1="206.4766" y2="206.4766"/><text fill="#000000" font-family="sans-serif" font-size="11" lengthAdjust="spacingAndGlyphs" textLength="106" x="74" y="221.8955">LED_ids: array(string)</text><!--class LED--><rect fill="#FEFECE" filter="url(#fqnrifr)" height="103.3438" style="stroke: #A80036; stroke-width: 1.5;" width="71" x="91.5" y="288.6406"/><ellipse cx="113.25" cy="304.6406" fill="#ADD1B2" rx="11" ry="11" style="stroke: #A80036; stroke-width: 1.0;"/><path d="M116.0156,300.5156 Q116.1719,300.2969 116.3594,300.1875 Q116.5469,300.0781 116.7656,300.0781 Q117.1406,300.0781 117.375,300.3359 Q117.6094,300.5938 117.6094,301.2031 L117.6094,302.6563 Q117.6094,303.2656 117.375,303.5313 Q117.1406,303.7969 116.7656,303.7969 Q116.4219,303.7969 116.2188,303.5938 Q116.0156,303.4063 115.9063,302.8906 Q115.8594,302.5313 115.6719,302.3438 Q115.3438,301.9688 114.7344,301.75 Q114.125,301.5313 113.5,301.5313 Q112.7344,301.5313 112.1016,301.8594 Q111.4688,302.1875 110.9766,302.9375 Q110.4844,303.6875 110.4844,304.7188 L110.4844,305.8125 Q110.4844,307.0469 111.375,307.8672 Q112.2656,308.6875 113.8594,308.6875 Q114.7969,308.6875 115.4531,308.4375 Q115.8438,308.2813 116.2656,307.8438 Q116.5313,307.5781 116.6797,307.5 Q116.8281,307.4219 117.0313,307.4219 Q117.3594,307.4219 117.6172,307.6797 Q117.875,307.9375 117.875,308.2813 Q117.875,308.625 117.5313,309.0313 Q117.0313,309.6094 116.2344,309.9375 Q115.1563,310.3906 113.8594,310.3906 Q112.3438,310.3906 111.1406,309.7656 Q110.1563,309.2656 109.4688,308.1953 Q108.7813,307.125 108.7813,305.8438 L108.7813,304.6875 Q108.7813,303.3594 109.3984,302.2109 Q110.0156,301.0625 111.1094,300.4453 Q112.2031,299.8281 113.4375,299.8281 Q114.1719,299.8281 114.8203,299.9922 Q115.4688,300.1563 116.0156,300.5156 Z "/><text fill="#000000" font-family="sans-serif" font-size="12" lengthAdjust="spacingAndGlyphs" textLength="24" x="128.75" y="309.5508">LED</text><line style="stroke: #A80036; stroke-width: 1.5;" x1="92.5" x2="161.5" y1="320.6406" y2="320.6406"/><text fill="#000000" font-family="sans-serif" font-size="11" lengthAdjust="spacingAndGlyphs" textLength="59" x="97.5" y="336.0596">name: string</text><text fill="#000000" font-family="sans-serif" font-size="11" lengthAdjust="spacingAndGlyphs" textLength="21" x="97.5" y="349.8955">r: int</text><text fill="#000000" font-family="sans-serif" font-size="11" lengthAdjust="spacingAndGlyphs" textLength="23" x="97.5" y="363.7314">g: int</text><text fill="#000000" font-family="sans-serif" font-size="11" lengthAdjust="spacingAndGlyphs" textLength="20" x="97.5" y="377.5674">b:int</text><line style="stroke: #A80036; stroke-width: 1.5;" x1="92.5" x2="161.5" y1="383.9844" y2="383.9844"/><!--class Pattern--><rect fill="#FEFECE" filter="url(#fqnrifr)" height="75.6719" style="stroke: #A80036; stroke-width: 1.5;" width="79" x="87.5" y="458.6406"/><ellipse cx="106.1" cy="474.6406" fill="#ADD1B2" rx="11" ry="11" style="stroke: #A80036; stroke-width: 1.0;"/><path d="M108.8656,470.5156 Q109.0219,470.2969 109.2094,470.1875 Q109.3969,470.0781 109.6156,470.0781 Q109.9906,470.0781 110.225,470.3359 Q110.4594,470.5938 110.4594,471.2031 L110.4594,472.6563 Q110.4594,473.2656 110.225,473.5313 Q109.9906,473.7969 109.6156,473.7969 Q109.2719,473.7969 109.0688,473.5938 Q108.8656,473.4063 108.7563,472.8906 Q108.7094,472.5313 108.5219,472.3438 Q108.1938,471.9688 107.5844,471.75 Q106.975,471.5313 106.35,471.5313 Q105.5844,471.5313 104.9516,471.8594 Q104.3188,472.1875 103.8266,472.9375 Q103.3344,473.6875 103.3344,474.7188 L103.3344,475.8125 Q103.3344,477.0469 104.225,477.8672 Q105.1156,478.6875 106.7094,478.6875 Q107.6469,478.6875 108.3031,478.4375 Q108.6938,478.2813 109.1156,477.8438 Q109.3813,477.5781 109.5297,477.5 Q109.6781,477.4219 109.8813,477.4219 Q110.2094,477.4219 110.4672,477.6797 Q110.725,477.9375 110.725,478.2813 Q110.725,478.625 110.3813,479.0313 Q109.8813,479.6094 109.0844,479.9375 Q108.0063,480.3906 106.7094,480.3906 Q105.1938,480.3906 103.9906,479.7656 Q103.0063,479.2656 102.3188,478.1953 Q101.6313,477.125 101.6313,475.8438 L101.6313,474.6875 Q101.6313,473.3594 102.2484,472.2109 Q102.8656,471.0625 103.9594,470.4453 Q105.0531,469.8281 106.2875,469.8281 Q107.0219,469.8281 107.6703,469.9922 Q108.3188,470.1563 108.8656,470.5156 Z "/><text fill="#000000" font-family="sans-serif" font-size="12" lengthAdjust="spacingAndGlyphs" textLength="39" x="120.9" y="479.5508">Pattern</text><line style="stroke: #A80036; stroke-width: 1.5;" x1="88.5" x2="165.5" y1="490.6406" y2="490.6406"/><text fill="#000000" font-family="sans-serif" font-size="11" lengthAdjust="spacingAndGlyphs" textLength="59" x="93.5" y="506.0596">name: string</text><text fill="#000000" font-family="sans-serif" font-size="11" lengthAdjust="spacingAndGlyphs" textLength="67" x="93.5" y="519.8955">rpm: interface</text><line style="stroke: #A80036; stroke-width: 1.5;" x1="88.5" x2="165.5" y1="526.3125" y2="526.3125"/><polygon fill="#FBFB77" filter="url(#fqnrifr)" points="6,483.6406,6,509.9922,52,509.9922,52,493.6406,42,483.6406,6,483.6406" style="stroke: #A80036; stroke-width: 1.0;"/><polygon fill="#FBFB77" points="6,483.6406,6,509.9922,52,509.9922,52,501.6406,87.343,496.6406,52,493.6406,52,493.6406,42,483.6406,6,483.6406" style="stroke: #A80036; stroke-width: 1.0;"/><line style="stroke: #A80036; stroke-width: 1.0;" x1="42" x2="42" y1="483.6406" y2="493.6406"/><line style="stroke: #A80036; stroke-width: 1.0;" x1="52" x2="42" y1="493.6406" y2="493.6406"/><text fill="#000000" font-family="sans-serif" font-size="13" lengthAdjust="spacingAndGlyphs" textLength="25" x="12" y="502.1357">TBD</text><!--class LEDPattern--><rect fill="#FEFECE" filter="url(#fqnrifr)" height="89.5078" style="stroke: #A80036; stroke-width: 1.5;" width="95" x="201.5" y="451.6406"/><ellipse cx="216.5" cy="467.6406" fill="#EB937F" rx="11" ry="11" style="stroke: #A80036; stroke-width: 1.0;"/><path d="M215.3594,468.4375 L215.3594,470.9375 L219.6875,470.9375 L219.6875,470.0156 Q219.6875,469.4063 219.9297,469.1406 Q220.1719,468.875 220.5469,468.875 Q220.9219,468.875 221.1563,469.1406 Q221.3906,469.4063 221.3906,470.0156 L221.3906,472.6406 L213.3906,472.6406 Q212.7656,472.6406 212.5078,472.4063 Q212.25,472.1719 212.25,471.7813 Q212.25,471.4063 212.5156,471.1719 Q212.7813,470.9375 213.3906,470.9375 L213.6563,470.9375 L213.6563,464.2813 L213.3906,464.2813 Q212.7656,464.2813 212.5078,464.0469 Q212.25,463.8125 212.25,463.4219 Q212.25,463.0469 212.5078,462.8125 Q212.7656,462.5781 213.3906,462.5781 L221.0156,462.5781 L221.0156,465.1719 Q221.0156,465.7813 220.7891,466.0391 Q220.5625,466.2969 220.1719,466.2969 Q219.7969,466.2969 219.5625,466.0391 Q219.3281,465.7813 219.3281,465.1719 L219.3281,464.2813 L215.3594,464.2813 L215.3594,466.7344 L216.8438,466.7344 Q216.8438,466.0781 216.9688,465.8906 Q217.2344,465.4844 217.7031,465.4844 Q218.0781,465.4844 218.3125,465.7422 Q218.5469,466 218.5469,466.6094 L218.5469,468.5781 Q218.5469,469.125 218.4219,469.3125 Q218.1563,469.7031 217.7031,469.7031 Q217.2344,469.7031 216.9688,469.2969 Q216.8438,469.1094 216.8438,468.4375 L215.3594,468.4375 Z "/><text fill="#000000" font-family="sans-serif" font-size="12" lengthAdjust="spacingAndGlyphs" textLength="63" x="230.5" y="472.5508">LEDPattern</text><line style="stroke: #A80036; stroke-width: 1.5;" x1="202.5" x2="295.5" y1="483.6406" y2="483.6406"/><text fill="#000000" font-family="sans-serif" font-size="11" lengthAdjust="spacingAndGlyphs" textLength="27" x="207.5" y="499.0596">Static</text><text fill="#000000" font-family="sans-serif" font-size="11" lengthAdjust="spacingAndGlyphs" textLength="36" x="207.5" y="512.8955">Blinking</text><text fill="#000000" font-family="sans-serif" font-size="11" lengthAdjust="spacingAndGlyphs" textLength="39" x="207.5" y="526.7314">Running</text><line style="stroke: #A80036; stroke-width: 1.5;" x1="202.5" x2="295.5" y1="533.1484" y2="533.1484"/><polygon fill="#FBFB77" filter="url(#fqnrifr)" points="332,483.6406,332,509.9922,378,509.9922,378,493.6406,368,483.6406,332,483.6406" style="stroke: #A80036; stroke-width: 1.0;"/><polygon fill="#FBFB77" points="332,483.6406,332,492.6406,296.617,496.6406,332,500.6406,332,509.9922,378,509.9922,378,493.6406,368,483.6406,332,483.6406" style="stroke: #A80036; stroke-width: 1.0;"/><line style="stroke: #A80036; stroke-width: 1.0;" x1="368" x2="368" y1="483.6406" y2="493.6406"/><line style="stroke: #A80036; stroke-width: 1.0;" x1="378" x2="368" y1="493.6406" y2="493.6406"/><text fill="#000000" font-family="sans-serif" font-size="13" lengthAdjust="spacingAndGlyphs" textLength="25" x="338" y="502.1357">TBD</text><path d="M127,92.7376 C127,108.9576 127,129.2416 127,147.0546 " fill="none" style="stroke: #A80036; stroke-width: 1.0;"/><polygon fill="#A80036" points="127,152.4956,131,143.4956,127,147.4956,123,143.4956,127,152.4956" style="stroke: #A80036; stroke-width: 1.0;"/><text fill="#000000" font-family="sans-serif" font-size="13" lengthAdjust="spacingAndGlyphs" textLength="5" x="121.5547" y="141.8317">*</text><path d="M127,228.8606 C127,245.3986 127,265.2156 127,283.4596 " fill="none" style="stroke: #A80036; stroke-width: 1.0;"/><polygon fill="#A80036" points="127,288.5596,131,279.5596,127,283.5596,123,279.5596,127,288.5596" style="stroke: #A80036; stroke-width: 1.0;"/><text fill="#000000" font-family="sans-serif" font-size="13" lengthAdjust="spacingAndGlyphs" textLength="5" x="121.6484" y="277.6767">*</text><path d="M127,391.7296 C127,411.5186 127,433.9676 127,452.9239 " fill="none" style="stroke: #A80036; stroke-width: 1.0;"/><polygon fill="#A80036" points="127,458.1727,131,449.1727,127,453.1727,123,449.1727,127,458.1727" style="stroke: #A80036; stroke-width: 1.0;"/><path d="M166.555,496.6406 C176.428,496.6406 186.301,496.6406 196.173,496.6406 " fill="none" style="stroke: #A80036; stroke-width: 1.0;"/><polygon fill="#A80036" points="201.336,496.6406,192.336,492.6406,196.336,496.6406,192.336,500.6406,201.336,496.6406" style="stroke: #A80036; stroke-width: 1.0;"/></g></svg>