<?xml version="1.0" encoding="UTF-8" standalone="no"?><svg xmlns="http://www.w3.org/2000/svg" xmlns:xlink="http://www.w3.org/1999/xlink" contentScriptType="application/ecmascript" contentStyleType="text/css" height="586px" preserveAspectRatio="none" style="width:818px;height:586px;" version="1.1" viewBox="0 0 818 586" width="818px" zoomAndPan="magnify"><defs><filter height="300%" id="fqnssq6" width="300%" x="-1" y="-1"><feGaussianBlur result="blurOut" stdDeviation="2.0"/><feColorMatrix in="blurOut" result="blurOut2" type="matrix" values="0 0 0 0 0 0 0 0 0 0 0 0 0 0 0 0 0 0 .4 0"/><feOffset dx="4.0" dy="4.0" in="blurOut2" result="blurOut3"/><feBlend in="SourceGraphic" in2="blurOut3" mode="normal"/></filter></defs><g><!--cluster ##36752--><path d="M222,31.5 C222,28.5 224,26.5 227,26.5 C230,26.5 232,28.5 232,31.5 C232,28.5 234,26.5 237,26.5 C240,26.5 242,28.5 242,31.5 C242,28.5 244,26.5 247,26.5 C250,26.5 252,28.5 252,31.5 C252,28.5 254,26.5 257,26.5 C260,26.5 262,28.5 262,31.5 C262,28.5 264,26.5 267,26.5 C270,26.5 272,28.5 272,31.5 C272,28.5 274,26.5 277,26.5 C280,26.5 282,28.5 282,31.5 C282,28.5 284,26.5 287,26.5 C290,26.5 292,28.5 292,31.5 C292,28.5 294,26.5 297,26.5 C300,26.5 302,28.5 302,31.5 C302,28.5 304,26.5 307,26.5 C310,26.5 312,28.5 312,31.5 C312,28.5 314,26.5 317,26.5 C320,26.5 322,28.5 322,31.5 C322,28.5 324,26.5 327,26.5 C330,26.5 332,28.5 332,31.5 C332,28.5 334,26.5 337,26.5 C340,26.5 342,28.5 342,31.5 C342,28.5 344,26.5 347,26.5 C350,26.5 352,28.5 352,31.5 C352,28.5 354,26.5 357,26.5 C360,26.5 362,28.5 362,31.5 C362,28.5 364,26.5 367,26.5 C370,26.5 372,28.5 372,31.5 C372,28.5 374,26.5 377,26.5 C380,26.5 382,28.5 382,31.5 C382,28.5 384,26.5 387,26.5 C390,26.5 392,28.5 392,31.5 C392,28.5 394,26.5 397,26.5 C400,26.5 402,28.5 402,31.5 C402,28.5 404,26.5 407,26.5 C410,26.5 412,28.5 412,31.5 C412,28.5 414,26.5 417,26.5 C420,26.5 422,28.5 422,31.5 C422,28.5 424,26.5 427,26.5 C430,26.5 432,28.5 432,31.5 C432,28.5 434,26.5 437,26.5 C440,26.5 442,28.5 442,31.5 C442,28.5 444,26.5 447,26.5 C450,26.5 452,28.5 452,31.5 C452,28.5 454,26.5 457,26.5 C460,26.5 462,28.5 462,31.5 C462,28.5 464,26.5 467,26.5 C470,26.5 472,28.5 472,31.5 C475,31.5 477,33.5 477,36.5 C477,39.5 475,41.5 472,41.5 C475,41.5 477,43.5 477,46.5 C477,49.5 475,51.5 472,51.5 C475,51.5 477,53.5 477,56.5 C477,59.5 475,61.5 472,61.5 C475,61.5 477,63.5 477,66.5 C477,69.5 475,71.5 472,71.5 C475,71.5 477,73.5 477,76.5 C477,79.5 475,81.5 472,81.5 C475,81.5 477,83.5 477,86.5 C477,89.5 475,91.5 472,91.5 C472,94.5 469,96.5 467,96.5 C464,96.5 462,94.5 462,91.5 C462,94.5 459,96.5 457,96.5 C454,96.5 452,94.5 452,91.5 C452,94.5 449,96.5 447,96.5 C444,96.5 442,94.5 442,91.5 C442,94.5 439,96.5 437,96.5 C434,96.5 432,94.5 432,91.5 C432,94.5 429,96.5 427,96.5 C424,96.5 422,94.5 422,91.5 C422,94.5 419,96.5 417,96.5 C414,96.5 412,94.5 412,91.5 C412,94.5 409,96.5 407,96.5 C404,96.5 402,94.5 402,91.5 C402,94.5 399,96.5 397,96.5 C394,96.5 392,94.5 392,91.5 C392,94.5 389,96.5 387,96.5 C384,96.5 382,94.5 382,91.5 C382,94.5 379,96.5 377,96.5 C374,96.5 372,94.5 372,91.5 C372,94.5 369,96.5 367,96.5 C364,96.5 362,94.5 362,91.5 C362,94.5 359,96.5 357,96.5 C354,96.5 352,94.5 352,91.5 C352,94.5 349,96.5 347,96.5 C344,96.5 342,94.5 342,91.5 C342,94.5 339,96.5 337,96.5 C334,96.5 332,94.5 332,91.5 C332,94.5 329,96.5 327,96.5 C324,96.5 322,94.5 322,91.5 C322,94.5 319,96.5 317,96.5 C314,96.5 312,94.5 312,91.5 C312,94.5 309,96.5 307,96.5 C304,96.5 302,94.5 302,91.5 C302,94.5 299,96.5 297,96.5 C294,96.5 292,94.5 292,91.5 C292,94.5 289,96.5 287,96.5 C284,96.5 282,94.5 282,91.5 C282,94.5 279,96.5 277,96.5 C274,96.5 272,94.5 272,91.5 C272,94.5 269,96.5 267,96.5 C264,96.5 262,94.5 262,91.5 C262,94.5 259,96.5 257,96.5 C254,96.5 252,94.5 252,91.5 C252,94.5 249,96.5 247,96.5 C244,96.5 242,94.5 242,91.5 C242,94.5 239,96.5 237,96.5 C234,96.5 232,94.5 232,91.5 C232,94.5 229,96.5 227,96.5 C224,96.5 222,94.5 222,91.5 C219,91.5 217,89.5 217,86.5 C217,83.5 219,81.5 222,81.5 C219,81.5 217,79.5 217,76.5 C217,73.5 219,71.5 222,71.5 C219,71.5 217,69.5 217,66.5 C217,63.5 219,61.5 222,61.5 C219,61.5 217,59.5 217,56.5 C217,53.5 219,51.5 222,51.5 C219,51.5 217,49.5 217,46.5 C217,43.5 219,41.5 222,41.5 C219,41.5 217,39.5 217,36.5 C217,33.5 219,31.5 222,31.5 " fill="#FFFFFF" filter="url(#fqnssq6)" style="stroke: #000000; stroke-width: 2.0;"/><!--cluster RaspberryPi--><polygon fill="#FFFFFF" filter="url(#fqnssq6)" points="57,154.5,67,144.5,315,144.5,315,434.5,305,444.5,57,444.5,57,154.5" style="stroke: #000000; stroke-width: 2.0;"/><line style="stroke: #000000; stroke-width: 2.0;" x1="305" x2="314" y1="154.5" y2="145.5"/><line style="stroke: #000000; stroke-width: 2.0;" x1="57" x2="305" y1="154.5" y2="154.5"/><line style="stroke: #000000; stroke-width: 2.0;" x1="305" x2="305" y1="154.5" y2="444.5"/><text fill="#000000" font-family="sans-serif" font-size="14" font-weight="bold" lengthAdjust="spacingAndGlyphs" textLength="85" x="139.5" y="172.0332">RaspberryPi</text><!--cluster Room/Instance--><polygon fill="#FFFFFF" filter="url(#fqnssq6)" points="81,193.5,191,193.5,198,217.1094,201,217.1094,201,283.5,81,283.5,81,193.5" style="stroke: #000000; stroke-width: 2.0;"/><line style="stroke: #000000; stroke-width: 2.0;" x1="81" x2="198" y1="217.1094" y2="217.1094"/><text fill="#000000" font-family="sans-serif" font-size="14" font-weight="bold" lengthAdjust="spacingAndGlyphs" textLength="104" x="85" y="210.0332">Room/Instance</text><!--cluster ESP Ledstrip (RoomX; ObjectX)--><polygon fill="#FFFFFF" filter="url(#fqnssq6)" points="339,198.5,349,188.5,736,188.5,736,273.5,726,283.5,339,283.5,339,198.5" style="stroke: #000000; stroke-width: 2.0;"/><line style="stroke: #000000; stroke-width: 2.0;" x1="726" x2="735" y1="198.5" y2="189.5"/><line style="stroke: #000000; stroke-width: 2.0;" x1="339" x2="726" y1="198.5" y2="198.5"/><line style="stroke: #000000; stroke-width: 2.0;" x1="726" x2="726" y1="198.5" y2="283.5"/><text fill="#000000" font-family="sans-serif" font-size="14" font-weight="bold" lengthAdjust="spacingAndGlyphs" textLength="215" x="426" y="216.0332">ESP Ledstrip (RoomX; ObjectX)</text><!--cluster Iphone--><polygon fill="#FFFFFF" filter="url(#fqnssq6)" points="349,351.5,359,341.5,495,341.5,495,571,485,581,349,581,349,351.5" style="stroke: #000000; stroke-width: 2.0;"/><line style="stroke: #000000; stroke-width: 2.0;" x1="485" x2="494" y1="351.5" y2="342.5"/><line style="stroke: #000000; stroke-width: 2.0;" x1="349" x2="485" y1="351.5" y2="351.5"/><line style="stroke: #000000; stroke-width: 2.0;" x1="485" x2="485" y1="351.5" y2="581"/><text fill="#000000" font-family="sans-serif" font-size="14" font-weight="bold" lengthAdjust="spacingAndGlyphs" textLength="49" x="393.5" y="369.0332">Iphone</text><!--entity Calender data--><rect fill="#FEFECE" filter="url(#fqnssq6)" height="37.6094" style="stroke: #A80036; stroke-width: 1.5;" width="110" x="350" y="40.5"/><rect fill="#FEFECE" height="5" style="stroke: #A80036; stroke-width: 1.5;" width="10" x="345" y="45.5"/><rect fill="#FEFECE" height="5" style="stroke: #A80036; stroke-width: 1.5;" width="10" x="345" y="68.1094"/><text fill="#000000" font-family="sans-serif" font-size="14" lengthAdjust="spacingAndGlyphs" textLength="90" x="360" y="65.0332">Calender data</text><!--entity HTTPS--><ellipse cx="258" cy="50.5" fill="#FEFECE" filter="url(#fqnssq6)" rx="8" ry="8" style="stroke: #A80036; stroke-width: 2.0;"/><text fill="#000000" font-family="sans-serif" font-size="14" lengthAdjust="spacingAndGlyphs" textLength="45" x="235.5" y="74.0332">HTTPS</text><!--entity Server--><rect fill="#FEFECE" filter="url(#fqnssq6)" height="37.6094" style="stroke: #A80036; stroke-width: 1.5;" width="62" x="109" y="390.5"/><rect fill="#FEFECE" height="5" style="stroke: #A80036; stroke-width: 1.5;" width="10" x="104" y="395.5"/><rect fill="#FEFECE" height="5" style="stroke: #A80036; stroke-width: 1.5;" width="10" x="104" y="418.1094"/><text fill="#000000" font-family="sans-serif" font-size="14" lengthAdjust="spacingAndGlyphs" textLength="42" x="119" y="415.0332">Server</text><!--entity HTTP--><ellipse cx="278" cy="400.5" fill="#FEFECE" filter="url(#fqnssq6)" rx="8" ry="8" style="stroke: #A80036; stroke-width: 2.0;"/><text fill="#000000" font-family="sans-serif" font-size="14" lengthAdjust="spacingAndGlyphs" textLength="36" x="260" y="424.0332">HTTP</text><!--entity Controller--><rect fill="#FEFECE" filter="url(#fqnssq6)" height="37.6094" style="stroke: #A80036; stroke-width: 1.5;" width="82" x="217" y="229.5"/><rect fill="#FEFECE" height="5" style="stroke: #A80036; stroke-width: 1.5;" width="10" x="212" y="234.5"/><rect fill="#FEFECE" height="5" style="stroke: #A80036; stroke-width: 1.5;" width="10" x="212" y="257.1094"/><text fill="#000000" font-family="sans-serif" font-size="14" lengthAdjust="spacingAndGlyphs" textLength="62" x="227" y="254.0332">Controller</text><!--entity RGB data--><rect fill="#FEFECE" filter="url(#fqnssq6)" height="37.6094" style="stroke: #A80036; stroke-width: 1.5;" width="82" x="99" y="229.5"/><rect fill="#FEFECE" height="5" style="stroke: #A80036; stroke-width: 1.5;" width="10" x="94" y="234.5"/><rect fill="#FEFECE" height="5" style="stroke: #A80036; stroke-width: 1.5;" width="10" x="94" y="257.1094"/><text fill="#000000" font-family="sans-serif" font-size="14" lengthAdjust="spacingAndGlyphs" textLength="62" x="109" y="254.0332">RGB data</text><!--entity LEDC1--><rect fill="#FEFECE" filter="url(#fqnssq6)" height="37.6094" style="stroke: #A80036; stroke-width: 1.5;" width="113" x="355.5" y="229.5"/><rect fill="#FEFECE" height="5" style="stroke: #A80036; stroke-width: 1.5;" width="10" x="350.5" y="234.5"/><rect fill="#FEFECE" height="5" style="stroke: #A80036; stroke-width: 1.5;" width="10" x="350.5" y="257.1094"/><text fill="#000000" font-family="sans-serif" font-size="14" lengthAdjust="spacingAndGlyphs" textLength="93" x="365.5" y="254.0332">LED Controller</text><!--entity GPIO1--><ellipse cx="555" cy="239.5" fill="#FEFECE" filter="url(#fqnssq6)" rx="8" ry="8" style="stroke: #A80036; stroke-width: 2.0;"/><text fill="#000000" font-family="sans-serif" font-size="14" lengthAdjust="spacingAndGlyphs" textLength="34" x="538" y="263.0332">GPIO</text><!--entity LED1--><rect fill="#FEFECE" filter="url(#fqnssq6)" height="37.6094" style="stroke: #A80036; stroke-width: 1.5;" width="78" x="642" y="229.5"/><rect fill="#FEFECE" height="5" style="stroke: #A80036; stroke-width: 1.5;" width="10" x="637" y="234.5"/><rect fill="#FEFECE" height="5" style="stroke: #A80036; stroke-width: 1.5;" width="10" x="637" y="257.1094"/><text fill="#000000" font-family="sans-serif" font-size="14" lengthAdjust="spacingAndGlyphs" textLength="58" x="652" y="254.0332">LED strip</text><!--entity Application--><rect fill="#FEFECE" filter="url(#fqnssq6)" height="37.6094" style="stroke: #A80036; stroke-width: 1.5;" width="89" x="373.5" y="519"/><rect fill="#FEFECE" height="5" style="stroke: #A80036; stroke-width: 1.5;" width="10" x="368.5" y="524"/><rect fill="#FEFECE" height="5" style="stroke: #A80036; stroke-width: 1.5;" width="10" x="368.5" y="546.6094"/><text fill="#000000" font-family="sans-serif" font-size="14" lengthAdjust="spacingAndGlyphs" textLength="69" x="383.5" y="543.5332">Application</text><!--entity Siri API--><rect fill="#FEFECE" filter="url(#fqnssq6)" height="37.6094" style="stroke: #A80036; stroke-width: 1.5;" width="65" x="385.5" y="390.5"/><rect fill="#FEFECE" height="5" style="stroke: #A80036; stroke-width: 1.5;" width="10" x="380.5" y="395.5"/><rect fill="#FEFECE" height="5" style="stroke: #A80036; stroke-width: 1.5;" width="10" x="380.5" y="418.1094"/><text fill="#000000" font-family="sans-serif" font-size="14" lengthAdjust="spacingAndGlyphs" textLength="45" x="395.5" y="415.0332">Siri API</text><polygon fill="#FBFB77" filter="url(#fqnssq6)" points="6,516.5,6,559.2031,196,559.2031,196,526.5,186,516.5,6,516.5" style="stroke: #A80036; stroke-width: 1.0;"/><polygon fill="#FBFB77" points="6,516.5,6,559.2031,196,559.2031,196,526.5,186,516.5,111.354,516.5,134.412,428.624,103.354,516.5,6,516.5" style="stroke: #A80036; stroke-width: 1.0;"/><line style="stroke: #A80036; stroke-width: 1.0;" x1="186" x2="186" y1="516.5" y2="526.5"/><line style="stroke: #A80036; stroke-width: 1.0;" x1="196" x2="186" y1="526.5" y2="526.5"/><text fill="#000000" font-family="sans-serif" font-size="13" lengthAdjust="spacingAndGlyphs" textLength="134" x="12" y="534.9951">Exposes the RGB data</text><text fill="#000000" font-family="sans-serif" font-size="13" lengthAdjust="spacingAndGlyphs" textLength="165" x="16" y="551.3467">and updates it upon request.</text><polygon fill="#FBFB77" filter="url(#fqnssq6)" points="231,525,231,551.3516,325,551.3516,325,535,315,525,231,525" style="stroke: #A80036; stroke-width: 1.0;"/><polygon fill="#FBFB77" points="231,525,231,551.3516,325,551.3516,325,535,315,525,282,525,278,427.56,274,525,231,525" style="stroke: #A80036; stroke-width: 1.0;"/><line style="stroke: #A80036; stroke-width: 1.0;" x1="315" x2="315" y1="525" y2="535"/><line style="stroke: #A80036; stroke-width: 1.0;" x1="325" x2="315" y1="535" y2="535"/><text fill="#000000" font-family="sans-serif" font-size="13" lengthAdjust="spacingAndGlyphs" textLength="73" x="237" y="543.4951">Web Service</text><polygon fill="#FBFB77" filter="url(#fqnssq6)" points="519,508.5,519,567.5547,809,567.5547,809,518.5,799,508.5,519,508.5" style="stroke: #A80036; stroke-width: 1.0;"/><line style="stroke: #A80036; stroke-width: 1.0;" x1="799" x2="799" y1="508.5" y2="518.5"/><line style="stroke: #A80036; stroke-width: 1.0;" x1="809" x2="799" y1="518.5" y2="518.5"/><text fill="#000000" font-family="sans-serif" font-size="13" lengthAdjust="spacingAndGlyphs" textLength="175" x="525" y="526.9951">Iphone can overwrite the LEDs</text><text fill="#000000" font-family="sans-serif" font-size="13" lengthAdjust="spacingAndGlyphs" textLength="58" x="529" y="543.3467">in a room.</text><text fill="#000000" font-family="sans-serif" font-size="13" lengthAdjust="spacingAndGlyphs" textLength="265" x="529" y="559.6982">It can also update the setting of the controller.</text><path d="M280.682,59.5 C303.668,59.5 326.654,59.5 349.639,59.5 " fill="none" style="stroke: #A80036; stroke-width: 1.0;"/><path d="M140,273.038 C140,303.172 140,355.071 140,385.126 " fill="none" style="stroke: #A80036; stroke-width: 1.0;"/><polygon fill="#A80036" points="140,390.473,144,381.473,140,385.473,136,381.473,140,390.473" style="stroke: #A80036; stroke-width: 1.0;"/><polygon fill="#A80036" points="140,267.739,136,276.739,140,272.739,144,276.739,140,267.739" style="stroke: #A80036; stroke-width: 1.0;"/><text fill="#000000" font-family="sans-serif" font-size="13" lengthAdjust="spacingAndGlyphs" textLength="21" x="141" y="313.9951">r+w</text><path d="M171.266,409.5 C200.729,409.5 230.192,409.5 259.655,409.5 " fill="none" style="stroke: #A80036; stroke-width: 1.0;"/><path d="M258,83.016 C258,120.546 258,195.148 258,229.464 " fill="none" style="stroke: #A80036; stroke-width: 1.0; stroke-dasharray: 7.0,7.0;"/><polygon fill="#A80036" points="258,77.757,254,86.757,258,82.757,262,86.757,258,77.757" style="stroke: #A80036; stroke-width: 1.0;"/><text fill="#000000" font-family="sans-serif" font-size="13" lengthAdjust="spacingAndGlyphs" textLength="28" x="259" y="124.9951">uses</text><path d="M260.294,267.739 C263.98,297.041 271.209,354.515 275.196,386.206 " fill="none" style="stroke: #A80036; stroke-width: 1.0; stroke-dasharray: 7.0,7.0;"/><polygon fill="#A80036" points="275.854,391.437,278.6991,382.008,275.2298,386.4761,270.7617,383.0068,275.854,391.437" style="stroke: #A80036; stroke-width: 1.0;"/><text fill="#000000" font-family="sans-serif" font-size="13" lengthAdjust="spacingAndGlyphs" textLength="28" x="268" y="313.9951">uses</text><path d="M396.628,267.739 C371.628,297.404 322.292,355.944 295.805,387.373 " fill="none" style="stroke: #A80036; stroke-width: 1.0; stroke-dasharray: 7.0,7.0;"/><polygon fill="#A80036" points="292.38,391.437,301.2392,387.1342,295.6028,387.6142,295.1228,381.9778,292.38,391.437" style="stroke: #A80036; stroke-width: 1.0;"/><text fill="#000000" font-family="sans-serif" font-size="13" lengthAdjust="spacingAndGlyphs" textLength="28" x="370" y="313.9951">uses</text><path d="M468.517,248.5 C491.016,248.5 515.586,248.5 532.768,248.5 " fill="none" style="stroke: #A80036; stroke-width: 1.0; stroke-dasharray: 7.0,7.0;"/><polygon fill="#A80036" points="537.853,248.5,528.853,244.5,532.853,248.5,528.853,252.5,537.853,248.5" style="stroke: #A80036; stroke-width: 1.0;"/><text fill="#000000" font-family="sans-serif" font-size="13" lengthAdjust="spacingAndGlyphs" textLength="28" x="489.25" y="241.9951">uses</text><path d="M572.227,248.5 C595.454,248.5 618.682,248.5 641.91,248.5 " fill="none" style="stroke: #A80036; stroke-width: 1.0;"/><path d="M299.834,430.229 C326.642,454.451 371.746,495.206 397.789,518.7378 " fill="none" style="stroke: #A80036; stroke-width: 1.0; stroke-dasharray: 7.0,7.0;"/><polygon fill="#A80036" points="296.016,426.779,300.0132,435.7803,299.7263,430.1307,305.3759,429.8438,296.016,426.779" style="stroke: #A80036; stroke-width: 1.0;"/><text fill="#000000" font-family="sans-serif" font-size="13" lengthAdjust="spacingAndGlyphs" textLength="28" x="354" y="474.9951">uses</text><path d="M418,433.645 C418,458.197 418,496.474 418,518.9093 " fill="none" style="stroke: #A80036; stroke-width: 1.0; stroke-dasharray: 7.0,7.0;"/><polygon fill="#A80036" points="418,428.624,414,437.624,418,433.624,422,437.624,418,428.624" style="stroke: #A80036; stroke-width: 1.0;"/><text fill="#000000" font-family="sans-serif" font-size="13" lengthAdjust="spacingAndGlyphs" textLength="28" x="419" y="474.9951">uses</text><path d="M495.112,416.2978 C495.2173,416.3731 495.3236,416.449 495.4308,416.5256 C495.8595,416.832 496.3028,417.1489 496.7603,417.4758 C498.5901,418.7835 500.6464,420.2531 502.9022,421.8653 C511.9257,428.3141 524.1429,437.0456 537.8396,446.8344 C565.233,466.4121 598.544,490.2191 624.057,508.4532 " fill="none" style="stroke: #A80036; stroke-width: 1.0; stroke-dasharray: 7.0,7.0;"/></g></svg>