<?xml version="1.0" encoding="UTF-8" standalone="no"?><svg xmlns="http://www.w3.org/2000/svg" xmlns:xlink="http://www.w3.org/1999/xlink" contentScriptType="application/ecmascript" contentStyleType="text/css" height="714px" preserveAspectRatio="none" style="width:609px;height:714px;" version="1.1" viewBox="0 0 609 714" width="609px" zoomAndPan="magnify"><defs><filter height="300%" id="fsrb0gl" width="300%" x="-1" y="-1"><feGaussianBlur result="blurOut" stdDeviation="2.0"/><feColorMatrix in="blurOut" result="blurOut2" type="matrix" values="0 0 0 0 0 0 0 0 0 0 0 0 0 0 0 0 0 0 .4 0"/><feOffset dx="4.0" dy="4.0" in="blurOut2" result="blurOut3"/><feBlend in="SourceGraphic" in2="blurOut3" mode="normal"/></filter></defs><g><!--cluster ##43495--><path d="M90,31.5 C90,28.5 92,26.5 95,26.5 C98,26.5 100,28.5 100,31.5 C100,28.5 102,26.5 105,26.5 C108,26.5 110,28.5 110,31.5 C110,28.5 112,26.5 115,26.5 C118,26.5 120,28.5 120,31.5 C120,28.5 122,26.5 125,26.5 C128,26.5 130,28.5 130,31.5 C130,28.5 132,26.5 135,26.5 C138,26.5 140,28.5 140,31.5 C140,28.5 142,26.5 145,26.5 C148,26.5 150,28.5 150,31.5 C150,28.5 152,26.5 155,26.5 C158,26.5 160,28.5 160,31.5 C160,28.5 162,26.5 165,26.5 C168,26.5 170,28.5 170,31.5 C170,28.5 172,26.5 175,26.5 C178,26.5 180,28.5 180,31.5 C180,28.5 182,26.5 185,26.5 C188,26.5 190,28.5 190,31.5 C190,28.5 192,26.5 195,26.5 C198,26.5 200,28.5 200,31.5 C200,28.5 202,26.5 205,26.5 C208,26.5 210,28.5 210,31.5 C210,28.5 212,26.5 215,26.5 C218,26.5 220,28.5 220,31.5 C220,28.5 222,26.5 225,26.5 C228,26.5 230,28.5 230,31.5 C230,28.5 232,26.5 235,26.5 C238,26.5 240,28.5 240,31.5 C240,28.5 242,26.5 245,26.5 C248,26.5 250,28.5 250,31.5 C250,28.5 252,26.5 255,26.5 C258,26.5 260,28.5 260,31.5 C260,28.5 262,26.5 265,26.5 C268,26.5 270,28.5 270,31.5 C270,28.5 272,26.5 275,26.5 C278,26.5 280,28.5 280,31.5 C280,28.5 282,26.5 285,26.5 C288,26.5 290,28.5 290,31.5 C290,28.5 292,26.5 295,26.5 C298,26.5 300,28.5 300,31.5 C300,28.5 302,26.5 305,26.5 C308,26.5 310,28.5 310,31.5 C310,28.5 312,26.5 315,26.5 C318,26.5 320,28.5 320,31.5 C320,28.5 322,26.5 325,26.5 C328,26.5 330,28.5 330,31.5 C330,28.5 332,26.5 335,26.5 C338,26.5 340,28.5 340,31.5 C343,31.5 345,33.5 345,36.5 C345,39.5 343,41.5 340,41.5 C343,41.5 345,43.5 345,46.5 C345,49.5 343,51.5 340,51.5 C343,51.5 345,53.5 345,56.5 C345,59.5 343,61.5 340,61.5 C343,61.5 345,63.5 345,66.5 C345,69.5 343,71.5 340,71.5 C343,71.5 345,73.5 345,76.5 C345,79.5 343,81.5 340,81.5 C343,81.5 345,83.5 345,86.5 C345,89.5 343,91.5 340,91.5 C340,94.5 337,96.5 335,96.5 C332,96.5 330,94.5 330,91.5 C330,94.5 327,96.5 325,96.5 C322,96.5 320,94.5 320,91.5 C320,94.5 317,96.5 315,96.5 C312,96.5 310,94.5 310,91.5 C310,94.5 307,96.5 305,96.5 C302,96.5 300,94.5 300,91.5 C300,94.5 297,96.5 295,96.5 C292,96.5 290,94.5 290,91.5 C290,94.5 287,96.5 285,96.5 C282,96.5 280,94.5 280,91.5 C280,94.5 277,96.5 275,96.5 C272,96.5 270,94.5 270,91.5 C270,94.5 267,96.5 265,96.5 C262,96.5 260,94.5 260,91.5 C260,94.5 257,96.5 255,96.5 C252,96.5 250,94.5 250,91.5 C250,94.5 247,96.5 245,96.5 C242,96.5 240,94.5 240,91.5 C240,94.5 237,96.5 235,96.5 C232,96.5 230,94.5 230,91.5 C230,94.5 227,96.5 225,96.5 C222,96.5 220,94.5 220,91.5 C220,94.5 217,96.5 215,96.5 C212,96.5 210,94.5 210,91.5 C210,94.5 207,96.5 205,96.5 C202,96.5 200,94.5 200,91.5 C200,94.5 197,96.5 195,96.5 C192,96.5 190,94.5 190,91.5 C190,94.5 187,96.5 185,96.5 C182,96.5 180,94.5 180,91.5 C180,94.5 177,96.5 175,96.5 C172,96.5 170,94.5 170,91.5 C170,94.5 167,96.5 165,96.5 C162,96.5 160,94.5 160,91.5 C160,94.5 157,96.5 155,96.5 C152,96.5 150,94.5 150,91.5 C150,94.5 147,96.5 145,96.5 C142,96.5 140,94.5 140,91.5 C140,94.5 137,96.5 135,96.5 C132,96.5 130,94.5 130,91.5 C130,94.5 127,96.5 125,96.5 C122,96.5 120,94.5 120,91.5 C120,94.5 117,96.5 115,96.5 C112,96.5 110,94.5 110,91.5 C110,94.5 107,96.5 105,96.5 C102,96.5 100,94.5 100,91.5 C100,94.5 97,96.5 95,96.5 C92,96.5 90,94.5 90,91.5 C87,91.5 85,89.5 85,86.5 C85,83.5 87,81.5 90,81.5 C87,81.5 85,79.5 85,76.5 C85,73.5 87,71.5 90,71.5 C87,71.5 85,69.5 85,66.5 C85,63.5 87,61.5 90,61.5 C87,61.5 85,59.5 85,56.5 C85,53.5 87,51.5 90,51.5 C87,51.5 85,49.5 85,46.5 C85,43.5 87,41.5 90,41.5 C87,41.5 85,39.5 85,36.5 C85,33.5 87,31.5 90,31.5 " fill="#FFFFFF" filter="url(#fsrb0gl)" style="stroke: #000000; stroke-width: 2.0;"/><!--cluster ##43500--><path d="M146,296.5 C146,293.5 148,291.5 151,291.5 C154,291.5 156,293.5 156,296.5 C156,293.5 158,291.5 161,291.5 C164,291.5 166,293.5 166,296.5 C166,293.5 168,291.5 171,291.5 C174,291.5 176,293.5 176,296.5 C176,293.5 178,291.5 181,291.5 C184,291.5 186,293.5 186,296.5 C186,293.5 188,291.5 191,291.5 C194,291.5 196,293.5 196,296.5 C196,293.5 198,291.5 201,291.5 C204,291.5 206,293.5 206,296.5 C206,293.5 208,291.5 211,291.5 C214,291.5 216,293.5 216,296.5 C216,293.5 218,291.5 221,291.5 C224,291.5 226,293.5 226,296.5 C226,293.5 228,291.5 231,291.5 C234,291.5 236,293.5 236,296.5 C236,293.5 238,291.5 241,291.5 C244,291.5 246,293.5 246,296.5 C246,293.5 248,291.5 251,291.5 C254,291.5 256,293.5 256,296.5 C256,293.5 258,291.5 261,291.5 C264,291.5 266,293.5 266,296.5 C266,293.5 268,291.5 271,291.5 C274,291.5 276,293.5 276,296.5 C276,293.5 278,291.5 281,291.5 C284,291.5 286,293.5 286,296.5 C286,293.5 288,291.5 291,291.5 C294,291.5 296,293.5 296,296.5 C296,293.5 298,291.5 301,291.5 C304,291.5 306,293.5 306,296.5 C306,293.5 308,291.5 311,291.5 C314,291.5 316,293.5 316,296.5 C316,293.5 318,291.5 321,291.5 C324,291.5 326,293.5 326,296.5 C326,293.5 328,291.5 331,291.5 C334,291.5 336,293.5 336,296.5 C336,293.5 338,291.5 341,291.5 C344,291.5 346,293.5 346,296.5 C346,293.5 348,291.5 351,291.5 C354,291.5 356,293.5 356,296.5 C356,293.5 358,291.5 361,291.5 C364,291.5 366,293.5 366,296.5 C369,296.5 371,298.5 371,301.5 C371,304.5 369,306.5 366,306.5 C369,306.5 371,308.5 371,311.5 C371,314.5 369,316.5 366,316.5 C369,316.5 371,318.5 371,321.5 C371,324.5 369,326.5 366,326.5 C369,326.5 371,328.5 371,331.5 C371,334.5 369,336.5 366,336.5 C369,336.5 371,338.5 371,341.5 C371,344.5 369,346.5 366,346.5 C369,346.5 371,348.5 371,351.5 C371,354.5 369,356.5 366,356.5 C366,359.5 363,361.5 361,361.5 C358,361.5 356,359.5 356,356.5 C356,359.5 353,361.5 351,361.5 C348,361.5 346,359.5 346,356.5 C346,359.5 343,361.5 341,361.5 C338,361.5 336,359.5 336,356.5 C336,359.5 333,361.5 331,361.5 C328,361.5 326,359.5 326,356.5 C326,359.5 323,361.5 321,361.5 C318,361.5 316,359.5 316,356.5 C316,359.5 313,361.5 311,361.5 C308,361.5 306,359.5 306,356.5 C306,359.5 303,361.5 301,361.5 C298,361.5 296,359.5 296,356.5 C296,359.5 293,361.5 291,361.5 C288,361.5 286,359.5 286,356.5 C286,359.5 283,361.5 281,361.5 C278,361.5 276,359.5 276,356.5 C276,359.5 273,361.5 271,361.5 C268,361.5 266,359.5 266,356.5 C266,359.5 263,361.5 261,361.5 C258,361.5 256,359.5 256,356.5 C256,359.5 253,361.5 251,361.5 C248,361.5 246,359.5 246,356.5 C246,359.5 243,361.5 241,361.5 C238,361.5 236,359.5 236,356.5 C236,359.5 233,361.5 231,361.5 C228,361.5 226,359.5 226,356.5 C226,359.5 223,361.5 221,361.5 C218,361.5 216,359.5 216,356.5 C216,359.5 213,361.5 211,361.5 C208,361.5 206,359.5 206,356.5 C206,359.5 203,361.5 201,361.5 C198,361.5 196,359.5 196,356.5 C196,359.5 193,361.5 191,361.5 C188,361.5 186,359.5 186,356.5 C186,359.5 183,361.5 181,361.5 C178,361.5 176,359.5 176,356.5 C176,359.5 173,361.5 171,361.5 C168,361.5 166,359.5 166,356.5 C166,359.5 163,361.5 161,361.5 C158,361.5 156,359.5 156,356.5 C156,359.5 153,361.5 151,361.5 C148,361.5 146,359.5 146,356.5 C143,356.5 141,354.5 141,351.5 C141,348.5 143,346.5 146,346.5 C143,346.5 141,344.5 141,341.5 C141,338.5 143,336.5 146,336.5 C143,336.5 141,334.5 141,331.5 C141,328.5 143,326.5 146,326.5 C143,326.5 141,324.5 141,321.5 C141,318.5 143,316.5 146,316.5 C143,316.5 141,314.5 141,311.5 C141,308.5 143,306.5 146,306.5 C143,306.5 141,304.5 141,301.5 C141,298.5 143,296.5 146,296.5 " fill="#FFFFFF" filter="url(#fsrb0gl)" style="stroke: #000000; stroke-width: 2.0;"/><!--cluster RaspberryPi--><polygon fill="#FFFFFF" filter="url(#fsrb0gl)" points="22,154.5,32,144.5,183,144.5,183,229.5,173,239.5,22,239.5,22,154.5" style="stroke: #000000; stroke-width: 2.0;"/><line style="stroke: #000000; stroke-width: 2.0;" x1="173" x2="182" y1="154.5" y2="145.5"/><line style="stroke: #000000; stroke-width: 2.0;" x1="22" x2="173" y1="154.5" y2="154.5"/><line style="stroke: #000000; stroke-width: 2.0;" x1="173" x2="173" y1="154.5" y2="239.5"/><text fill="#000000" font-family="sans-serif" font-size="14" font-weight="bold" lengthAdjust="spacingAndGlyphs" textLength="85" x="56" y="172.0332">RaspberryPi</text><!--cluster ESP Ledstrip (RoomX; ObjectX)--><polygon fill="#FFFFFF" filter="url(#fsrb0gl)" points="207,154.5,217,144.5,604,144.5,604,229.5,594,239.5,207,239.5,207,154.5" style="stroke: #000000; stroke-width: 2.0;"/><line style="stroke: #000000; stroke-width: 2.0;" x1="594" x2="603" y1="154.5" y2="145.5"/><line style="stroke: #000000; stroke-width: 2.0;" x1="207" x2="594" y1="154.5" y2="154.5"/><line style="stroke: #000000; stroke-width: 2.0;" x1="594" x2="594" y1="154.5" y2="239.5"/><text fill="#000000" font-family="sans-serif" font-size="14" font-weight="bold" lengthAdjust="spacingAndGlyphs" textLength="215" x="294" y="172.0332">ESP Ledstrip (RoomX; ObjectX)</text><!--cluster Iphone--><polygon fill="#FFFFFF" filter="url(#fsrb0gl)" points="113,489.5,123,479.5,270,479.5,270,699,260,709,113,709,113,489.5" style="stroke: #000000; stroke-width: 2.0;"/><line style="stroke: #000000; stroke-width: 2.0;" x1="260" x2="269" y1="489.5" y2="480.5"/><line style="stroke: #000000; stroke-width: 2.0;" x1="113" x2="260" y1="489.5" y2="489.5"/><line style="stroke: #000000; stroke-width: 2.0;" x1="260" x2="260" y1="489.5" y2="709"/><text fill="#000000" font-family="sans-serif" font-size="14" font-weight="bold" lengthAdjust="spacingAndGlyphs" textLength="49" x="163" y="507.0332">Iphone</text><!--entity Calender data--><rect fill="#FEFECE" filter="url(#fsrb0gl)" height="37.6094" style="stroke: #A80036; stroke-width: 1.5;" width="110" x="218" y="40.5"/><rect fill="#FEFECE" height="5" style="stroke: #A80036; stroke-width: 1.5;" width="10" x="213" y="45.5"/><rect fill="#FEFECE" height="5" style="stroke: #A80036; stroke-width: 1.5;" width="10" x="213" y="68.1094"/><text fill="#000000" font-family="sans-serif" font-size="14" lengthAdjust="spacingAndGlyphs" textLength="90" x="228" y="65.0332">Calender data</text><!--entity HTTPS--><ellipse cx="126" cy="50.5" fill="#FEFECE" filter="url(#fsrb0gl)" rx="8" ry="8" style="stroke: #A80036; stroke-width: 2.0;"/><text fill="#000000" font-family="sans-serif" font-size="14" lengthAdjust="spacingAndGlyphs" textLength="45" x="103.5" y="74.0332">HTTPS</text><!--entity Firebase--><rect fill="#FEFECE" filter="url(#fsrb0gl)" height="37.6094" style="stroke: #A80036; stroke-width: 1.5;" width="76" x="274" y="305.5"/><rect fill="#FEFECE" height="5" style="stroke: #A80036; stroke-width: 1.5;" width="10" x="269" y="310.5"/><rect fill="#FEFECE" height="5" style="stroke: #A80036; stroke-width: 1.5;" width="10" x="269" y="333.1094"/><text fill="#000000" font-family="sans-serif" font-size="14" lengthAdjust="spacingAndGlyphs" textLength="56" x="284" y="330.0332">Firebase</text><!--entity fHTTPS--><ellipse cx="182" cy="315.5" fill="#FEFECE" filter="url(#fsrb0gl)" rx="8" ry="8" style="stroke: #A80036; stroke-width: 2.0;"/><text fill="#000000" font-family="sans-serif" font-size="14" lengthAdjust="spacingAndGlyphs" textLength="45" x="159.5" y="339.0332">HTTPS</text><!--entity Controller--><rect fill="#FEFECE" filter="url(#fsrb0gl)" height="37.6094" style="stroke: #A80036; stroke-width: 1.5;" width="82" x="85" y="185.5"/><rect fill="#FEFECE" height="5" style="stroke: #A80036; stroke-width: 1.5;" width="10" x="80" y="190.5"/><rect fill="#FEFECE" height="5" style="stroke: #A80036; stroke-width: 1.5;" width="10" x="80" y="213.1094"/><text fill="#000000" font-family="sans-serif" font-size="14" lengthAdjust="spacingAndGlyphs" textLength="62" x="95" y="210.0332">Controller</text><!--entity LEDC1--><rect fill="#FEFECE" filter="url(#fsrb0gl)" height="37.6094" style="stroke: #A80036; stroke-width: 1.5;" width="113" x="223.5" y="185.5"/><rect fill="#FEFECE" height="5" style="stroke: #A80036; stroke-width: 1.5;" width="10" x="218.5" y="190.5"/><rect fill="#FEFECE" height="5" style="stroke: #A80036; stroke-width: 1.5;" width="10" x="218.5" y="213.1094"/><text fill="#000000" font-family="sans-serif" font-size="14" lengthAdjust="spacingAndGlyphs" textLength="93" x="233.5" y="210.0332">LED Controller</text><!--entity GPIO1--><ellipse cx="423" cy="195.5" fill="#FEFECE" filter="url(#fsrb0gl)" rx="8" ry="8" style="stroke: #A80036; stroke-width: 2.0;"/><text fill="#000000" font-family="sans-serif" font-size="14" lengthAdjust="spacingAndGlyphs" textLength="34" x="406" y="219.0332">GPIO</text><!--entity LED1--><rect fill="#FEFECE" filter="url(#fsrb0gl)" height="37.6094" style="stroke: #A80036; stroke-width: 1.5;" width="78" x="510" y="185.5"/><rect fill="#FEFECE" height="5" style="stroke: #A80036; stroke-width: 1.5;" width="10" x="505" y="190.5"/><rect fill="#FEFECE" height="5" style="stroke: #A80036; stroke-width: 1.5;" width="10" x="505" y="213.1094"/><text fill="#000000" font-family="sans-serif" font-size="14" lengthAdjust="spacingAndGlyphs" textLength="58" x="520" y="210.0332">LED strip</text><!--entity Application--><rect fill="#FEFECE" filter="url(#fsrb0gl)" height="37.6094" style="stroke: #A80036; stroke-width: 1.5;" width="89" x="137.5" y="528.5"/><rect fill="#FEFECE" height="5" style="stroke: #A80036; stroke-width: 1.5;" width="10" x="132.5" y="533.5"/><rect fill="#FEFECE" height="5" style="stroke: #A80036; stroke-width: 1.5;" width="10" x="132.5" y="556.1094"/><text fill="#000000" font-family="sans-serif" font-size="14" lengthAdjust="spacingAndGlyphs" textLength="69" x="147.5" y="553.0332">Application</text><!--entity Siri API--><rect fill="#FEFECE" filter="url(#fsrb0gl)" height="37.6094" style="stroke: #A80036; stroke-width: 1.5;" width="65" x="149.5" y="647"/><rect fill="#FEFECE" height="5" style="stroke: #A80036; stroke-width: 1.5;" width="10" x="144.5" y="652"/><rect fill="#FEFECE" height="5" style="stroke: #A80036; stroke-width: 1.5;" width="10" x="144.5" y="674.6094"/><text fill="#000000" font-family="sans-serif" font-size="14" lengthAdjust="spacingAndGlyphs" textLength="45" x="159.5" y="671.5332">Siri API</text><polygon fill="#FBFB77" filter="url(#fsrb0gl)" points="294,644.5,294,687.2031,584,687.2031,584,654.5,574,644.5,294,644.5" style="stroke: #A80036; stroke-width: 1.0;"/><line style="stroke: #A80036; stroke-width: 1.0;" x1="574" x2="574" y1="644.5" y2="654.5"/><line style="stroke: #A80036; stroke-width: 1.0;" x1="584" x2="574" y1="654.5" y2="654.5"/><text fill="#000000" font-family="sans-serif" font-size="13" lengthAdjust="spacingAndGlyphs" textLength="237" x="300" y="662.9951">Iphone can overwrite the LEDs in a room.</text><text fill="#000000" font-family="sans-serif" font-size="13" lengthAdjust="spacingAndGlyphs" textLength="265" x="304" y="679.3467">It can also update the setting of the controller.</text><path d="M148.682,59.5 C171.668,59.5 194.654,59.5 217.639,59.5 " fill="none" style="stroke: #A80036; stroke-width: 1.0;"/><path d="M204.598,324.5 C227.672,324.5 250.747,324.5 273.822,324.5 " fill="none" style="stroke: #A80036; stroke-width: 1.0;"/><path d="M126,82.78 C126,111.013 126,159.141 126,185.288 " fill="none" style="stroke: #A80036; stroke-width: 1.0; stroke-dasharray: 7.0,7.0;"/><polygon fill="#A80036" points="126,77.749,122,86.749,126,82.749,130,86.749,126,77.749" style="stroke: #A80036; stroke-width: 1.0;"/><text fill="#000000" font-family="sans-serif" font-size="13" lengthAdjust="spacingAndGlyphs" textLength="28" x="127" y="124.9951">uses</text><path d="M134.627,223.679 C144.595,244.683 160.988,279.224 171.638,301.665 " fill="none" style="stroke: #A80036; stroke-width: 1.0; stroke-dasharray: 7.0,7.0;"/><polygon fill="#A80036" points="173.819,306.261,173.573,296.4152,171.6748,301.7441,166.346,299.8459,173.819,306.261" style="stroke: #A80036; stroke-width: 1.0;"/><text fill="#000000" font-family="sans-serif" font-size="13" lengthAdjust="spacingAndGlyphs" textLength="28" x="159" y="269.9951">uses</text><path d="M264.902,223.679 C247.313,244.858 218.291,279.803 199.668,302.226 " fill="none" style="stroke: #A80036; stroke-width: 1.0; stroke-dasharray: 7.0,7.0;"/><polygon fill="#A80036" points="196.317,306.261,205.1445,301.8935,199.5117,302.4147,198.9905,296.782,196.317,306.261" style="stroke: #A80036; stroke-width: 1.0;"/><text fill="#000000" font-family="sans-serif" font-size="13" lengthAdjust="spacingAndGlyphs" textLength="28" x="237" y="269.9951">uses</text><path d="M336.517,204.5 C359.016,204.5 383.586,204.5 400.768,204.5 " fill="none" style="stroke: #A80036; stroke-width: 1.0; stroke-dasharray: 7.0,7.0;"/><polygon fill="#A80036" points="405.853,204.5,396.853,200.5,400.853,204.5,396.853,208.5,405.853,204.5" style="stroke: #A80036; stroke-width: 1.0;"/><text fill="#000000" font-family="sans-serif" font-size="13" lengthAdjust="spacingAndGlyphs" textLength="28" x="357.25" y="197.9951">uses</text><path d="M440.227,204.5 C463.454,204.5 486.682,204.5 509.91,204.5 " fill="none" style="stroke: #A80036; stroke-width: 1.0;"/><path d="M182,347.922 C182,391.774 182,488.111 182,528.315 " fill="none" style="stroke: #A80036; stroke-width: 1.0; stroke-dasharray: 7.0,7.0;"/><polygon fill="#A80036" points="182,342.841,178,351.841,182,347.841,186,351.841,182,342.841" style="stroke: #A80036; stroke-width: 1.0;"/><text fill="#000000" font-family="sans-serif" font-size="13" lengthAdjust="spacingAndGlyphs" textLength="28" x="183" y="420.9951">uses</text><path d="M182,566.703 C182,586.965 182,619.757 182,641.8337 " fill="none" style="stroke: #A80036; stroke-width: 1.0; stroke-dasharray: 7.0,7.0;"/><polygon fill="#A80036" points="182,646.9247,186,637.9247,182,641.9247,178,637.9247,182,646.9247" style="stroke: #A80036; stroke-width: 1.0;"/><text fill="#000000" font-family="sans-serif" font-size="13" lengthAdjust="spacingAndGlyphs" textLength="28" x="183" y="610.9951">uses</text><path d="M270.2535,553.9321 C270.366,554.0062 270.4796,554.0809 270.5941,554.1563 C270.8232,554.3071 271.0564,554.4606 271.2936,554.6167 C271.768,554.9289 272.2584,555.2517 272.7644,555.5848 C274.7884,556.9169 277.0612,558.4129 279.5509,560.0517 C289.51,566.6067 302.9405,575.4466 317.8025,585.2288 C347.5265,604.7931 382.9765,628.1262 407.833,644.4863 " fill="none" style="stroke: #A80036; stroke-width: 1.0; stroke-dasharray: 7.0,7.0;"/></g></svg>